<mxfile host="app.diagrams.net" agent="Mozilla/5.0 (X11; Ubuntu; Linux x86_64; rv:139.0) Gecko/20100101 Firefox/139.0" version="27.1.0">
  <diagram name="Page-1" id="P2MrDQURrPLdUZsKUwCs">
    <mxGraphModel dx="1351" dy="880" grid="0" gridSize="10" guides="1" tooltips="1" connect="1" arrows="1" fold="1" page="1" pageScale="1" pageWidth="3300" pageHeight="4681" math="0" shadow="0">
      <root>
        <mxCell id="0" />
        <mxCell id="1" parent="0" />
        <mxCell id="usGCbAMj93nxUB7HmoNn-1" value="" style="rounded=0;whiteSpace=wrap;html=1;strokeColor=default;fillColor=none;dashed=1;dashPattern=8 8;" vertex="1" parent="1">
          <mxGeometry x="397" y="286" width="997" height="541" as="geometry" />
        </mxCell>
        <mxCell id="usGCbAMj93nxUB7HmoNn-56" style="edgeStyle=orthogonalEdgeStyle;rounded=0;orthogonalLoop=1;jettySize=auto;html=1;exitX=1;exitY=0.75;exitDx=0;exitDy=0;entryX=0;entryY=0.75;entryDx=0;entryDy=0;" edge="1" parent="1" source="usGCbAMj93nxUB7HmoNn-54" target="usGCbAMj93nxUB7HmoNn-2">
          <mxGeometry relative="1" as="geometry" />
        </mxCell>
        <mxCell id="usGCbAMj93nxUB7HmoNn-61" style="edgeStyle=orthogonalEdgeStyle;rounded=0;orthogonalLoop=1;jettySize=auto;html=1;dashed=1;" edge="1" parent="1" source="usGCbAMj93nxUB7HmoNn-54" target="usGCbAMj93nxUB7HmoNn-14">
          <mxGeometry relative="1" as="geometry" />
        </mxCell>
        <mxCell id="usGCbAMj93nxUB7HmoNn-54" value="" style="rounded=1;whiteSpace=wrap;html=1;fillColor=none;dashed=1;" vertex="1" parent="1">
          <mxGeometry x="607" y="393" width="152" height="102" as="geometry" />
        </mxCell>
        <mxCell id="usGCbAMj93nxUB7HmoNn-44" style="edgeStyle=orthogonalEdgeStyle;rounded=0;orthogonalLoop=1;jettySize=auto;html=1;entryX=0.5;entryY=0;entryDx=0;entryDy=0;" edge="1" parent="1" source="usGCbAMj93nxUB7HmoNn-27" target="usGCbAMj93nxUB7HmoNn-13">
          <mxGeometry relative="1" as="geometry" />
        </mxCell>
        <mxCell id="usGCbAMj93nxUB7HmoNn-27" value="" style="rounded=1;whiteSpace=wrap;html=1;fillColor=none;dashed=1;" vertex="1" parent="1">
          <mxGeometry x="1184" y="446" width="173" height="257" as="geometry" />
        </mxCell>
        <mxCell id="usGCbAMj93nxUB7HmoNn-42" style="edgeStyle=orthogonalEdgeStyle;rounded=0;orthogonalLoop=1;jettySize=auto;html=1;exitX=0.5;exitY=0;exitDx=0;exitDy=0;dashed=1;" edge="1" parent="1" source="usGCbAMj93nxUB7HmoNn-23" target="usGCbAMj93nxUB7HmoNn-38">
          <mxGeometry relative="1" as="geometry" />
        </mxCell>
        <mxCell id="usGCbAMj93nxUB7HmoNn-43" style="edgeStyle=orthogonalEdgeStyle;rounded=0;orthogonalLoop=1;jettySize=auto;html=1;entryX=0;entryY=0.5;entryDx=0;entryDy=0;exitX=1;exitY=0.75;exitDx=0;exitDy=0;" edge="1" parent="1" source="usGCbAMj93nxUB7HmoNn-23" target="usGCbAMj93nxUB7HmoNn-13">
          <mxGeometry relative="1" as="geometry" />
        </mxCell>
        <mxCell id="usGCbAMj93nxUB7HmoNn-23" value="" style="rounded=1;whiteSpace=wrap;html=1;fillColor=none;dashed=1;fontSize=15;" vertex="1" parent="1">
          <mxGeometry x="674" y="673" width="281" height="90" as="geometry" />
        </mxCell>
        <mxCell id="usGCbAMj93nxUB7HmoNn-22" style="edgeStyle=orthogonalEdgeStyle;rounded=0;orthogonalLoop=1;jettySize=auto;html=1;entryX=0;entryY=0.5;entryDx=0;entryDy=0;" edge="1" parent="1" source="usGCbAMj93nxUB7HmoNn-2" target="usGCbAMj93nxUB7HmoNn-10">
          <mxGeometry relative="1" as="geometry" />
        </mxCell>
        <mxCell id="usGCbAMj93nxUB7HmoNn-57" style="edgeStyle=orthogonalEdgeStyle;rounded=0;orthogonalLoop=1;jettySize=auto;html=1;exitX=0;exitY=0.25;exitDx=0;exitDy=0;entryX=1;entryY=0.25;entryDx=0;entryDy=0;" edge="1" parent="1" source="usGCbAMj93nxUB7HmoNn-2" target="usGCbAMj93nxUB7HmoNn-54">
          <mxGeometry relative="1" as="geometry" />
        </mxCell>
        <mxCell id="usGCbAMj93nxUB7HmoNn-2" value="&lt;div&gt;dserver&lt;/div&gt;" style="rounded=0;whiteSpace=wrap;html=1;fontSize=16;" vertex="1" parent="1">
          <mxGeometry x="813" y="424" width="120" height="60" as="geometry" />
        </mxCell>
        <mxCell id="usGCbAMj93nxUB7HmoNn-15" style="edgeStyle=orthogonalEdgeStyle;rounded=0;orthogonalLoop=1;jettySize=auto;html=1;" edge="1" parent="1" source="usGCbAMj93nxUB7HmoNn-3" target="usGCbAMj93nxUB7HmoNn-11">
          <mxGeometry relative="1" as="geometry" />
        </mxCell>
        <mxCell id="usGCbAMj93nxUB7HmoNn-55" style="edgeStyle=orthogonalEdgeStyle;rounded=0;orthogonalLoop=1;jettySize=auto;html=1;entryX=0;entryY=0.75;entryDx=0;entryDy=0;exitX=1;exitY=0.75;exitDx=0;exitDy=0;" edge="1" parent="1" source="usGCbAMj93nxUB7HmoNn-3" target="usGCbAMj93nxUB7HmoNn-54">
          <mxGeometry relative="1" as="geometry" />
        </mxCell>
        <mxCell id="usGCbAMj93nxUB7HmoNn-58" style="edgeStyle=orthogonalEdgeStyle;rounded=0;orthogonalLoop=1;jettySize=auto;html=1;exitX=1;exitY=0.25;exitDx=0;exitDy=0;entryX=0;entryY=0.25;entryDx=0;entryDy=0;startArrow=classic;startFill=1;endArrow=none;" edge="1" parent="1" source="usGCbAMj93nxUB7HmoNn-3" target="usGCbAMj93nxUB7HmoNn-54">
          <mxGeometry relative="1" as="geometry" />
        </mxCell>
        <mxCell id="usGCbAMj93nxUB7HmoNn-3" value="dclient" style="rounded=0;whiteSpace=wrap;html=1;fontSize=16;" vertex="1" parent="1">
          <mxGeometry x="432" y="424" width="120" height="60" as="geometry" />
        </mxCell>
        <mxCell id="usGCbAMj93nxUB7HmoNn-31" style="edgeStyle=orthogonalEdgeStyle;rounded=0;orthogonalLoop=1;jettySize=auto;html=1;entryX=0.5;entryY=0;entryDx=0;entryDy=0;exitX=1;exitY=0.5;exitDx=0;exitDy=0;" edge="1" parent="1" source="usGCbAMj93nxUB7HmoNn-4" target="usGCbAMj93nxUB7HmoNn-27">
          <mxGeometry relative="1" as="geometry" />
        </mxCell>
        <mxCell id="usGCbAMj93nxUB7HmoNn-4" value="&lt;div&gt;cache&lt;/div&gt;" style="rounded=0;whiteSpace=wrap;html=1;fontSize=16;" vertex="1" parent="1">
          <mxGeometry x="1087" y="316" width="120" height="60" as="geometry" />
        </mxCell>
        <mxCell id="usGCbAMj93nxUB7HmoNn-5" value="index table" style="rounded=0;whiteSpace=wrap;html=1;fontSize=16;" vertex="1" parent="1">
          <mxGeometry x="821" y="689" width="120" height="60" as="geometry" />
        </mxCell>
        <mxCell id="usGCbAMj93nxUB7HmoNn-6" value="free list" style="rounded=0;whiteSpace=wrap;html=1;fontSize=16;" vertex="1" parent="1">
          <mxGeometry x="687" y="689" width="120" height="60" as="geometry" />
        </mxCell>
        <mxCell id="usGCbAMj93nxUB7HmoNn-7" value="FIFO" style="rounded=0;whiteSpace=wrap;html=1;fontSize=16;" vertex="1" parent="1">
          <mxGeometry x="1211" y="466" width="120" height="60" as="geometry" />
        </mxCell>
        <mxCell id="usGCbAMj93nxUB7HmoNn-8" value="RAND" style="rounded=0;whiteSpace=wrap;html=1;fontSize=16;" vertex="1" parent="1">
          <mxGeometry x="1211" y="544" width="120" height="60" as="geometry" />
        </mxCell>
        <mxCell id="usGCbAMj93nxUB7HmoNn-9" value="LRU" style="rounded=0;whiteSpace=wrap;html=1;fontSize=16;" vertex="1" parent="1">
          <mxGeometry x="1211" y="622" width="120" height="60" as="geometry" />
        </mxCell>
        <mxCell id="usGCbAMj93nxUB7HmoNn-25" style="edgeStyle=orthogonalEdgeStyle;rounded=0;orthogonalLoop=1;jettySize=auto;html=1;entryX=1;entryY=0.25;entryDx=0;entryDy=0;exitX=0.5;exitY=1;exitDx=0;exitDy=0;" edge="1" parent="1" source="usGCbAMj93nxUB7HmoNn-10" target="usGCbAMj93nxUB7HmoNn-23">
          <mxGeometry relative="1" as="geometry" />
        </mxCell>
        <mxCell id="usGCbAMj93nxUB7HmoNn-28" style="edgeStyle=orthogonalEdgeStyle;rounded=0;orthogonalLoop=1;jettySize=auto;html=1;entryX=0;entryY=0.5;entryDx=0;entryDy=0;" edge="1" parent="1" source="usGCbAMj93nxUB7HmoNn-10" target="usGCbAMj93nxUB7HmoNn-4">
          <mxGeometry relative="1" as="geometry" />
        </mxCell>
        <mxCell id="usGCbAMj93nxUB7HmoNn-10" value="server ops" style="rounded=0;whiteSpace=wrap;html=1;fontSize=16;" vertex="1" parent="1">
          <mxGeometry x="986" y="449.5" width="120" height="60" as="geometry" />
        </mxCell>
        <mxCell id="usGCbAMj93nxUB7HmoNn-11" value="client ops" style="rounded=0;whiteSpace=wrap;html=1;fontSize=16;" vertex="1" parent="1">
          <mxGeometry x="452" y="585" width="120" height="60" as="geometry" />
        </mxCell>
        <mxCell id="usGCbAMj93nxUB7HmoNn-12" value="utils" style="rounded=0;whiteSpace=wrap;html=1;fontSize=16;" vertex="1" parent="1">
          <mxGeometry x="472" y="711" width="116" height="52" as="geometry" />
        </mxCell>
        <mxCell id="usGCbAMj93nxUB7HmoNn-13" value="document" style="rounded=0;whiteSpace=wrap;html=1;fontSize=16;" vertex="1" parent="1">
          <mxGeometry x="1047" y="729" width="117" height="60" as="geometry" />
        </mxCell>
        <mxCell id="usGCbAMj93nxUB7HmoNn-14" value="defs" style="rounded=0;whiteSpace=wrap;html=1;fontSize=16;" vertex="1" parent="1">
          <mxGeometry x="624.5" y="552" width="117.5" height="50" as="geometry" />
        </mxCell>
        <mxCell id="usGCbAMj93nxUB7HmoNn-48" style="edgeStyle=orthogonalEdgeStyle;rounded=0;orthogonalLoop=1;jettySize=auto;html=1;entryX=0.5;entryY=0;entryDx=0;entryDy=0;strokeWidth=2;" edge="1" parent="1" source="usGCbAMj93nxUB7HmoNn-16" target="usGCbAMj93nxUB7HmoNn-3">
          <mxGeometry relative="1" as="geometry" />
        </mxCell>
        <mxCell id="usGCbAMj93nxUB7HmoNn-16" value="&lt;div&gt;./bin/dclient -a &quot;title&quot; &quot;authors&quot; &quot;year&quot; &quot;path&quot;&lt;/div&gt;&lt;div&gt;./bin/dclient -d id&lt;/div&gt;&lt;div&gt;./bin/dclient -c id&lt;/div&gt;&lt;div&gt;./bin/dclient -l id &quot;keyword&quot;&lt;/div&gt;&lt;div&gt;./bin/dclient -s &quot;keyword&quot; [nr_procs]&lt;/div&gt;&lt;div&gt;./bin/dclient -f&lt;/div&gt;" style="rounded=0;whiteSpace=wrap;html=1;labelPosition=center;verticalLabelPosition=middle;align=center;verticalAlign=middle;fontSize=16;" vertex="1" parent="1">
          <mxGeometry x="352" y="227" width="320" height="133" as="geometry" />
        </mxCell>
        <mxCell id="usGCbAMj93nxUB7HmoNn-46" style="edgeStyle=orthogonalEdgeStyle;rounded=0;orthogonalLoop=1;jettySize=auto;html=1;entryX=0.5;entryY=0;entryDx=0;entryDy=0;exitX=-0.014;exitY=0.436;exitDx=0;exitDy=0;exitPerimeter=0;" edge="1" parent="1" source="usGCbAMj93nxUB7HmoNn-17" target="usGCbAMj93nxUB7HmoNn-16">
          <mxGeometry relative="1" as="geometry" />
        </mxCell>
        <mxCell id="usGCbAMj93nxUB7HmoNn-17" value="User" style="text;html=1;align=center;verticalAlign=middle;resizable=0;points=[];autosize=1;strokeColor=default;fillColor=none;fontSize=24;dashed=1;" vertex="1" parent="1">
          <mxGeometry x="644.5" y="178" width="69" height="41" as="geometry" />
        </mxCell>
        <mxCell id="usGCbAMj93nxUB7HmoNn-24" value="Disk Management" style="text;html=1;align=center;verticalAlign=middle;resizable=0;points=[];autosize=1;strokeColor=none;fillColor=none;fontSize=16;" vertex="1" parent="1">
          <mxGeometry x="741" y="766" width="147" height="31" as="geometry" />
        </mxCell>
        <mxCell id="usGCbAMj93nxUB7HmoNn-32" value="Cache Types" style="text;html=1;align=center;verticalAlign=middle;resizable=0;points=[];autosize=1;strokeColor=none;fillColor=none;fontSize=16;" vertex="1" parent="1">
          <mxGeometry x="1213" y="704" width="112" height="31" as="geometry" />
        </mxCell>
        <mxCell id="usGCbAMj93nxUB7HmoNn-20" value="tmp/server_fifo" style="text;html=1;align=center;verticalAlign=middle;resizable=0;points=[];autosize=1;strokeColor=default;fillColor=none;fontSize=16;dashed=1;dashPattern=1 1;" vertex="1" parent="1">
          <mxGeometry x="620.5" y="448.5" width="124" height="31" as="geometry" />
        </mxCell>
        <mxCell id="usGCbAMj93nxUB7HmoNn-41" style="edgeStyle=orthogonalEdgeStyle;rounded=0;orthogonalLoop=1;jettySize=auto;html=1;dashed=1;" edge="1" parent="1" source="usGCbAMj93nxUB7HmoNn-38" target="usGCbAMj93nxUB7HmoNn-14">
          <mxGeometry relative="1" as="geometry" />
        </mxCell>
        <mxCell id="usGCbAMj93nxUB7HmoNn-38" value="tmp/metadata.bin" style="text;html=1;align=center;verticalAlign=middle;resizable=0;points=[];autosize=1;strokeColor=default;fillColor=none;fontSize=16;dashed=1;dashPattern=1 1;" vertex="1" parent="1">
          <mxGeometry x="813" y="561.5" width="142" height="31" as="geometry" />
        </mxCell>
        <mxCell id="usGCbAMj93nxUB7HmoNn-49" style="edgeStyle=orthogonalEdgeStyle;rounded=0;orthogonalLoop=1;jettySize=auto;html=1;strokeWidth=2;" edge="1" parent="1" source="usGCbAMj93nxUB7HmoNn-45" target="usGCbAMj93nxUB7HmoNn-2">
          <mxGeometry relative="1" as="geometry" />
        </mxCell>
        <mxCell id="usGCbAMj93nxUB7HmoNn-45" value="./bin/dserver document_folder cache size [-g] [cache_type]" style="rounded=0;whiteSpace=wrap;html=1;fontSize=16;" vertex="1" parent="1">
          <mxGeometry x="697" y="261" width="299" height="60" as="geometry" />
        </mxCell>
        <mxCell id="usGCbAMj93nxUB7HmoNn-47" style="edgeStyle=orthogonalEdgeStyle;rounded=0;orthogonalLoop=1;jettySize=auto;html=1;entryX=0.5;entryY=0;entryDx=0;entryDy=0;exitX=1;exitY=0.453;exitDx=0;exitDy=0;exitPerimeter=0;" edge="1" parent="1" source="usGCbAMj93nxUB7HmoNn-17" target="usGCbAMj93nxUB7HmoNn-45">
          <mxGeometry relative="1" as="geometry" />
        </mxCell>
        <mxCell id="usGCbAMj93nxUB7HmoNn-53" value="tmp/client_fifo" style="text;html=1;align=center;verticalAlign=middle;resizable=0;points=[];autosize=1;strokeColor=default;fillColor=none;fontSize=16;dashed=1;dashPattern=1 1;" vertex="1" parent="1">
          <mxGeometry x="624.5" y="408" width="117" height="31" as="geometry" />
        </mxCell>
        <mxCell id="usGCbAMj93nxUB7HmoNn-62" value="Communication" style="text;html=1;align=center;verticalAlign=middle;resizable=0;points=[];autosize=1;strokeColor=none;fillColor=none;fontSize=16;" vertex="1" parent="1">
          <mxGeometry x="618" y="363" width="129" height="31" as="geometry" />
        </mxCell>
      </root>
    </mxGraphModel>
  </diagram>
</mxfile>
